<?xml version="1.0" encoding="UTF-8" standalone="no"?>
<svg
   height="7"
   viewBox="0 0 126 7"
   width="126"
   version="1.1"
   id="svg3"
   sodipodi:docname="BusVuActive_hori.svg"
   inkscape:version="1.3 (0e150ed6c4, 2023-07-21)"
   xmlns:inkscape="http://www.inkscape.org/namespaces/inkscape"
   xmlns:sodipodi="http://sodipodi.sourceforge.net/DTD/sodipodi-0.dtd"
   xmlns="http://www.w3.org/2000/svg"
   xmlns:svg="http://www.w3.org/2000/svg">
  <defs
     id="defs3" />
  <sodipodi:namedview
     id="namedview3"
     pagecolor="#505050"
     bordercolor="#eeeeee"
     borderopacity="1"
     inkscape:showpageshadow="0"
     inkscape:pageopacity="0"
     inkscape:pagecheckerboard="0"
     inkscape:deskcolor="#505050"
     inkscape:lockguides="false"
     inkscape:zoom="4.5357509"
     inkscape:cx="49.275193"
     inkscape:cy="19.511654"
     inkscape:window-width="1920"
     inkscape:window-height="1017"
     inkscape:window-x="1912"
     inkscape:window-y="1072"
     inkscape:window-maximized="1"
     inkscape:current-layer="svg3" />
  <linearGradient
     id="a"
     gradientUnits="userSpaceOnUse"
     x1="8"
     x2="8"
     y1="2"
     y2="126"
     gradientTransform="matrix(0,0.36208801,-1.0064969,0,127.4158,0.51742603)">
    <stop
       offset="0"
       stop-color="#ff5f5f"
       id="stop1" />
    <stop
       offset=".5"
       stop-color="#e1da5b"
       id="stop2" />
    <stop
       offset="1"
       stop-color="#5fff97"
       id="stop3" />
  </linearGradient>
  <path
     d="m 124.39631,1.60369 v 3.620881 m -3.01949,0 V 1.60369 m -3.01949,0 v 3.620881 m -3.01949,0 V 1.60369 m -3.01949,0 v 3.620881 m -3.01949,0 V 1.60369 m -3.01949,0 v 3.620881 m -3.0195,0 V 1.60369 m -3.01948,0 v 3.620881 m -5.032488,0 V 1.60369 m -3.019491,0 v 3.620881 m -3.019491,0 V 1.60369 m -3.01949,0 v 3.620881 m -3.019491,0 V 1.60369 m -3.019491,0 v 3.620881 m -3.01949,0 V 1.60369 m -3.019491,0 v 3.620881 m -3.019491,0 V 1.60369 m -3.01949,0 v 3.620881 m -3.019491,0 V 1.60369 m -3.019491,0 v 3.620881 m -3.019491,0 V 1.60369 m -3.01949,0 v 3.620881 m -3.019491,0 V 1.60369 m -3.019491,0 v 3.620881 m -3.01949,0 V 1.60369 m -3.019491,0 v 3.620881 m -3.019491,0 V 1.60369 m -3.019491,0 v 3.620881 m -3.01949,0 V 1.60369 m -3.019491,0 v 3.620881 m -3.019491,0 V 1.60369 m -3.019496,0 v 3.620881 m -3.01949,0 V 1.60369 m -3.01949,0 v 3.620881 m -3.01949,0 V 1.60369 m -3.01949,0 v 3.620881 m -3.019491,0 V 1.60369 m -3.019489,0 v 3.620881 m -3.01949,0 V 1.60369 m -3.01949,0 v 3.620881"
     fill="none"
     stroke-linecap="round"
     stroke-width="1.20738"
     stroke="url(#a)"
     id="path3"
     style="stroke:url(#a)" />
</svg>
